<?xml version="1.0" encoding="UTF-8"?>
<svg width="273px" height="91px" viewBox="0 0 273 91" version="1.1" xmlns="http://www.w3.org/2000/svg" xmlns:xlink="http://www.w3.org/1999/xlink">
    <title>logotime</title>
    <g id="Partner-images" stroke="none" stroke-width="1" fill="none" fill-rule="evenodd">
        <g id="logotime" fill-rule="nonzero">
            <g id="Group">
                <path d="M273,68.6809572 L250.588878,48.1764707 L250.588878,21.9561316 C250.588878,17.4197408 246.883813,13.6999003 242.365442,13.6999003 L24.9414101,13.6999003 C20.4230387,13.6999003 16.7179742,17.4197408 16.7179742,21.9561316 L16.7179742,82.7437686 C16.7179742,87.2801594 20.4230387,91 24.9414101,91 L242.365442,91 C246.883813,91 250.588878,87.2801594 250.588878,82.7437686 L250.588878,69.4975074 L273,68.6809572 Z" id="Path" fill="#000000"></path>
                <path d="M9.57894737,80.0219342 C4.33763653,80.0219342 0,75.7577269 0,70.4047855 L0,9.61714854 C0,4.35493519 4.24726911,0 9.57894737,0 L227.002979,0 C232.24429,0 236.581926,4.26420738 236.581926,9.61714854 L236.581926,35.2023929 L260.981132,57.6121634 L236.581926,58.5194415 L236.581926,70.4047855 C236.581926,75.6669989 232.334657,80.0219342 227.002979,80.0219342 L9.57894737,80.0219342 Z" id="Path" fill="#000000"></path>
                <path d="M257.54717,56.3419741 L235.136048,35.8374876 L235.136048,9.61714854 C235.136048,5.08075772 231.430983,1.36091725 226.912612,1.36091725 L9.57894737,1.36091725 C5.06057596,1.36091725 1.35551142,5.08075772 1.35551142,9.61714854 L1.35551142,70.4047855 C1.35551142,74.9411763 5.06057596,78.6610169 9.57894737,78.6610169 L227.002979,78.6610169 C231.521351,78.6610169 235.226415,74.9411763 235.226415,70.4047855 L235.226415,57.1585243 L257.54717,56.3419741 Z" id="Path" fill="#FFFFFF"></path>
            </g>
            <g id="Group" transform="translate(117.942286, 15.318666)">
                <path d="M11.174206,0 L25.2424128,0 C25.2424128,0 30.3328823,-0.0924131804 34.8680279,3.06906353 C40.4212673,6.88143249 40.6989294,7.25337093 41.9021314,8.55515543 C43.5681031,10.4148476 43.8457652,13.8552782 44.030873,16.5518318 C44.2159812,19.3413701 43.3829952,26.2222311 43.3829952,27.5240156 C43.3829952,28.8258002 41.9021314,39.2400764 24.7796429,38.8681379 C7.56460033,38.4961994 11.174206,0 11.174206,0 Z" id="Path" fill="#000000"></path>
                <path d="M0.252834971,11.3446937 C-0.765258939,-1.02225927 1.27092888,0.0935560374 6.73161441,0.0935560374 L13.6731638,0.0935560374 C14.3210418,0.0935560374 14.8763657,0.186540646 15.4316896,0.372509864 C16.0795676,0.558479082 16.6348916,0.837432908 17.0976615,1.20937134 L24.0392109,7.0674017 C24.5945349,7.62530934 25.0573048,8.18321702 25.3349668,8.92709387 C25.6126288,9.57798616 25.7051828,10.321863 25.7051828,11.0657399 L25.7051828,45.7489989 C25.7051828,47.3297374 25.2424128,48.6315219 24.3168729,49.4683833 C23.391333,50.3982294 22.1881311,50.8631525 20.6147132,50.8631525 L12.3774079,50.8631525 C11.72953,50.8631525 11.081652,50.7701679 10.5263281,50.5841986 C9.87845012,50.3982294 9.41568017,50.0262911 8.95291022,49.6543526 L2.10391481,43.8893069 C1.45603687,43.3313991 1.0858209,42.7734916 0.808158924,42.0296145 C0.530496949,41.3787224 0.437942955,40.6348456 0.437942955,39.8909685 L0.437942955,39.7979839" id="Path" fill="#000000"></path>
                <path d="M3.46135011,41.9540616 C2.07044102,41.9540616 1.42135011,41.2986804 1.42135011,39.8942916 L1.42135011,3.28655902 C1.42135011,1.8821703 2.07044102,1.2267889 3.46135011,1.2267889 L20.6158955,1.2267889 C30.8158954,1.2267889 33.8758956,5.72083281 33.8758956,12.2746468 L33.8758956,19.4838422 C33.8758956,26.0376562 30.8158954,30.5317001 20.6158955,30.5317001 L14.2177137,30.5317001 L14.2177137,39.8942916 C14.2177137,41.2986804 13.5686228,41.9540616 12.1777137,41.9540616 L3.46135011,41.9540616 Z M14.1486228,20.317698 L19.1774477,20.317698 C21.4124809,20.317698 21.7849865,18.9619668 21.7849865,17.4125596 L21.7849865,14.3137454 C21.7849865,12.7643383 21.3193545,11.4086071 19.1774477,11.4086071 L14.1486228,11.4086071 L14.1486228,20.317698 Z" id="Shape" fill="#FF7F00"></path>
            </g>
            <g id="Group" transform="translate(37.942286, 15.318666)">
                <path d="M11.174206,0 L25.2424128,0 C25.2424128,0 30.3328823,-0.0924131804 34.8680279,3.06906353 C40.4212673,6.88143249 40.6989294,7.25337093 41.9021314,8.55515543 C43.5681031,10.4148476 43.8457652,13.8552782 44.030873,16.5518318 C44.2159812,19.3413701 43.3829952,26.2222311 43.3829952,27.5240156 C43.3829952,28.8258002 41.9021314,39.2400764 24.7796429,38.8681379 C7.56460033,38.4961994 11.174206,0 11.174206,0 Z" id="Path" fill="#000000"></path>
                <path d="M0.252834971,11.3446937 C-0.765258939,-1.02225927 1.27092888,0.0935560374 6.73161441,0.0935560374 L13.6731638,0.0935560374 C14.3210418,0.0935560374 14.8763657,0.186540646 15.4316896,0.372509864 C16.0795676,0.558479082 16.6348916,0.837432908 17.0976615,1.20937134 L24.0392109,7.0674017 C24.5945349,7.62530934 25.0573048,8.18321702 25.3349668,8.92709387 C25.6126288,9.57798616 25.7051828,10.321863 25.7051828,11.0657399 L25.7051828,45.7489989 C25.7051828,47.3297374 25.2424128,48.6315219 24.3168729,49.4683833 C23.391333,50.3982294 22.1881311,50.8631525 20.6147132,50.8631525 L12.3774079,50.8631525 C11.72953,50.8631525 11.081652,50.7701679 10.5263281,50.5841986 C9.87845012,50.3982294 9.41568017,50.0262911 8.95291022,49.6543526 L2.10391481,43.8893069 C1.45603687,43.3313991 1.0858209,42.7734916 0.808158924,42.0296145 C0.530496949,41.3787224 0.437942955,40.6348456 0.437942955,39.8909685 L0.437942955,39.7979839" id="Path" fill="#000000"></path>
                <path d="M3.46135011,41.9540616 C2.07044102,41.9540616 1.42135011,41.2986804 1.42135011,39.8942916 L1.42135011,3.28655902 C1.42135011,1.8821703 2.07044102,1.2267889 3.46135011,1.2267889 L20.6158955,1.2267889 C30.8158954,1.2267889 33.8758956,5.72083281 33.8758956,12.2746468 L33.8758956,19.4838422 C33.8758956,26.0376562 30.8158954,30.5317001 20.6158955,30.5317001 L14.2177137,30.5317001 L14.2177137,39.8942916 C14.2177137,41.2986804 13.5686228,41.9540616 12.1777137,41.9540616 L3.46135011,41.9540616 Z M14.1486228,20.317698 L19.1774477,20.317698 C21.4124809,20.317698 21.7849865,18.9619668 21.7849865,17.4125596 L21.7849865,14.3137454 C21.7849865,12.7643383 21.3193545,11.4086071 19.1774477,11.4086071 L14.1486228,11.4086071 L14.1486228,20.317698 Z" id="Shape" fill="#FF7F00"></path>
            </g>
            <g id="Group-3" transform="translate(158.818182, 15.909091)">
                <path d="M0,11.2331002 L0,5.06410256 C0,3.49883449 0.450522898,2.2097902 1.35156869,1.38111888 C2.25261449,0.460372971 3.4239744,0 4.95575219,0 L29.0136764,0 C29.6444087,0 30.1850364,0.0920745943 30.7256636,0.276223783 C31.3563959,0.460372971 31.8970232,0.736596723 32.3475461,1.1048951 L39.1053902,6.90559441 C39.6460178,7.45804195 40.0965407,8.01048951 40.3668545,8.74708623 C40.637168,9.39160839 40.7272727,10.1282051 40.7272727,10.8648019 C40.7272727,10.8648019 40.7272727,18.1386947 40.7272727,19.0594407 C40.7272727,20.9930071 38.1142397,21.2692309 38.1142397,21.2692309 L38.1142397,31.3053614 C38.1142397,31.3053614 40.7272727,32.1340325 40.7272727,33.9755244 C40.7272727,35.8170163 40.7272727,45.2086247 40.7272727,45.2086247 C40.7272727,46.7738928 40.2767498,48.0629371 39.375704,48.8916085 C38.4746582,49.8123545 37.3032983,50.2727273 35.7715205,50.2727273 L11.7135963,50.2727273 C11.082864,50.2727273 10.452132,50.1806528 9.91150438,49.9965035 C9.28077239,49.8123545 8.83024949,49.4440558 8.37972659,49.0757575 L1.7119872,43.3671329 C1.08125489,42.8146852 0.720836699,42.2622379 0.450522898,41.525641 C0.180209097,40.8811188 0.0901047049,40.1445222 0.0901047049,39.4079253 L0.0901047049,33.2389278 L0.0901047049,11.2331002 L0,11.2331002 Z" id="Path" fill="#000000"></path>
                <path d="M3.81032544,41.7210461 C2.51402904,41.7210461 1.90909091,41.0701534 1.90909091,39.6753841 L1.90909091,3.31838938 C1.90909091,1.92361977 2.51402904,1.27272727 3.81032544,1.27272727 L28.0078564,1.27272727 C29.3041528,1.27272727 29.9090909,1.92361977 29.9090909,3.31838938 L29.9090909,9.92029887 C29.9090909,11.3150685 29.3041528,11.965961 28.0078564,11.965961 L13.5757576,11.965961 L13.5757576,16.3362391 L23.7732885,16.3362391 C25.0695846,16.3362391 25.674523,16.9871315 25.674523,18.3819012 L25.674523,24.425903 C25.674523,25.8206724 25.0695846,26.471565 23.7732885,26.471565 L13.5757576,26.471565 L13.5757576,31.3067663 L28.0078564,31.3067663 C29.3041528,31.3067663 29.9090909,31.9576586 29.9090909,33.3524283 L29.9090909,39.954338 C29.9090909,41.3491074 29.3041528,42 28.0078564,42 L3.81032544,42 L3.81032544,41.7210461 Z" id="Path" fill="#FF7F00"></path>
            </g>
            <g id="Group-3" transform="translate(77.818182, 15.909091)">
                <path d="M0,11.2331002 L0,5.06410256 C0,3.49883449 0.450522898,2.2097902 1.35156869,1.38111888 C2.25261449,0.460372971 3.4239744,0 4.95575219,0 L29.0136764,0 C29.6444087,0 30.1850364,0.0920745943 30.7256636,0.276223783 C31.3563959,0.460372971 31.8970232,0.736596723 32.3475461,1.1048951 L39.1053902,6.90559441 C39.6460178,7.45804195 40.0965407,8.01048951 40.3668545,8.74708623 C40.637168,9.39160839 40.7272727,10.1282051 40.7272727,10.8648019 C40.7272727,10.8648019 40.7272727,18.1386947 40.7272727,19.0594407 C40.7272727,20.9930071 38.1142397,21.2692309 38.1142397,21.2692309 L38.1142397,31.3053614 C38.1142397,31.3053614 40.7272727,32.1340325 40.7272727,33.9755244 C40.7272727,35.8170163 40.7272727,45.2086247 40.7272727,45.2086247 C40.7272727,46.7738928 40.2767498,48.0629371 39.375704,48.8916085 C38.4746582,49.8123545 37.3032983,50.2727273 35.7715205,50.2727273 L11.7135963,50.2727273 C11.082864,50.2727273 10.452132,50.1806528 9.91150438,49.9965035 C9.28077239,49.8123545 8.83024949,49.4440558 8.37972659,49.0757575 L1.7119872,43.3671329 C1.08125489,42.8146852 0.720836699,42.2622379 0.450522898,41.525641 C0.180209097,40.8811188 0.0901047049,40.1445222 0.0901047049,39.4079253 L0.0901047049,33.2389278 L0.0901047049,11.2331002 L0,11.2331002 Z" id="Path" fill="#000000"></path>
                <path d="M3.81032544,41.7210461 C2.51402904,41.7210461 1.90909091,41.0701534 1.90909091,39.6753841 L1.90909091,3.31838938 C1.90909091,1.92361977 2.51402904,1.27272727 3.81032544,1.27272727 L28.0078564,1.27272727 C29.3041528,1.27272727 29.9090909,1.92361977 29.9090909,3.31838938 L29.9090909,9.92029887 C29.9090909,11.3150685 29.3041528,11.965961 28.0078564,11.965961 L13.5757576,11.965961 L13.5757576,16.3362391 L23.7732885,16.3362391 C25.0695846,16.3362391 25.674523,16.9871315 25.674523,18.3819012 L25.674523,24.425903 C25.674523,25.8206724 25.0695846,26.471565 23.7732885,26.471565 L13.5757576,26.471565 L13.5757576,31.3067663 L28.0078564,31.3067663 C29.3041528,31.3067663 29.9090909,31.9576586 29.9090909,33.3524283 L29.9090909,39.954338 C29.9090909,41.3491074 29.3041528,42 28.0078564,42 L3.81032544,42 L3.81032544,41.7210461 Z" id="Path" fill="#FF7F00"></path>
            </g>
        </g>
    </g>
</svg>